<svg width="51" height="50" viewBox="0 0 51 50" fill="none" xmlns="http://www.w3.org/2000/svg">
<path d="M12.3338 0H0V11.4258H13.1662L17.4792 24.365H33.5964L37.9095 11.4258H51V0H38.8932L34.6558 12.9392H16.4956L12.3338 0Z" fill="#1B1B1B"/>
<path d="M13.6405 24.0934L13.5266 23.7515H13.1662H0.5V13.3257H11.9694L16.0196 25.9179L16.1311 26.2649H16.4956H34.6558H35.0182L35.131 25.9205L39.2556 13.3257H50.5V23.7515H37.9095H37.5491L37.4352 24.0934L33.2361 36.6907H17.8396L13.6405 24.0934Z" stroke="#1B1B1B"/>
<path d="M12.3338 25.5757H0V37.0015H13.1662L17.4792 49.9407H33.5964L37.9095 37.0015H51V25.5757H38.8932L34.6558 38.5149H16.4956L12.3338 25.5757Z" fill="#1B1B1B"/>
</svg>
