<?xml version="1.0" encoding="UTF-8" standalone="no"?>
<svg
   xmlns:dc="http://purl.org/dc/elements/1.1/"
   xmlns:cc="http://creativecommons.org/ns#"
   xmlns:rdf="http://www.w3.org/1999/02/22-rdf-syntax-ns#"
   xmlns:svg="http://www.w3.org/2000/svg"
   xmlns="http://www.w3.org/2000/svg"
   xmlns:sodipodi="http://sodipodi.sourceforge.net/DTD/sodipodi-0.dtd"
   xmlns:inkscape="http://www.inkscape.org/namespaces/inkscape"
   width="569"
   height="569"
   viewBox="0 0 569 569"
   fill="none"
   version="1.1"
   id="svg895"
   sodipodi:docname="dashaus.svg"
   inkscape:version="0.92.5 (2060ec1f9f, 2020-04-08)">
  <metadata
     id="metadata901">
    <rdf:RDF>
      <cc:Work
         rdf:about="">
        <dc:format>image/svg+xml</dc:format>
        <dc:type
           rdf:resource="http://purl.org/dc/dcmitype/StillImage" />
        <dc:title></dc:title>
      </cc:Work>
    </rdf:RDF>
  </metadata>
  <defs
     id="defs899" />
  <sodipodi:namedview
     pagecolor="#ffffff"
     bordercolor="#666666"
     borderopacity="1"
     objecttolerance="10"
     gridtolerance="10"
     guidetolerance="10"
     inkscape:pageopacity="0"
     inkscape:pageshadow="2"
     inkscape:window-width="1360"
     inkscape:window-height="721"
     id="namedview897"
     showgrid="false"
     inkscape:zoom="0.58656309"
     inkscape:cx="320.19924"
     inkscape:cy="165.64557"
     inkscape:window-x="0"
     inkscape:window-y="0"
     inkscape:window-maximized="1"
     inkscape:current-layer="svg895" />
  <rect
     x="7.09234"
     y="6.71538"
     width="555.138"
     height="555.138"
     stroke="#1B1B1B"
     stroke-width="13.4308"
     id="rect893" />
  <path
     inkscape:connector-curvature="0"
     style="fill:#1b1b1b"
     d="m 213.62516,528.00097 v -48.995 h -33.362 v 48.995 H 165.11325 V 417.11702 h 15.14991 v 48.02845 h 33.362 v -48.02845 h 15.3111 v 110.88395 z m 110.14949,0 -6.769,-28.36529 h -31.26699 l -6.608,28.36529 h -15.1502 l 27.2372,-110.88395 h 20.95199 l 27.077,110.88395 z m -21.919,-94.4447 h -0.967 l -12.088,53.0247 h 25.142 z m 134.917,-16.43925 v 62.37245 c 0,14.50531 -0.645,25.03501 -1.934,31.58921 -1.182,6.55429 -3.975,11.22829 -8.381,14.02129 -4.298,2.794 -11.389,4.191 -21.274,4.191 -9.778,0 -16.869,-1.397 -21.274,-4.191 -4.298,-2.793 -7.092,-7.467 -8.381,-14.02129 -1.29,-6.6616 -1.934,-17.1914 -1.934,-31.58921 v -62.37245 h 15.311 v 68.33575 c 0,9.56271 0.269,16.33181 0.806,20.30731 0.644,3.8681 2.041,6.5543 4.19,8.0585 2.257,1.5044 6.017,2.25639 11.282,2.25639 5.265,0 8.972,-0.75199 11.121,-2.25639 2.256,-1.5042 3.653,-4.1904 4.19,-8.0585 0.645,-3.9755 0.967,-10.7446 0.967,-20.30731 v -68.33575 z m 67.976,112.17395 c -4.298,0 -9.026,-0.215 -14.183,-0.645 -5.15699,-0.43 -9.724,-0.967 -13.699,-1.612 v -12.73189 c 9.24,1.1819 17.03001,1.77289 23.369,1.77289 4.083,0 7.306,-0.26899 9.67,-0.80599 2.471,-0.6446 4.406,-1.6653 5.802,-3.0621 1.29001,-1.2893 2.149,-3.1159 2.579,-5.4797 0.43,-2.3639 0.645,-5.4798 0.645,-9.3479 0,-5.2648 -0.269,-8.9717 -0.806,-11.12061 -0.43,-2.2564 -1.504,-3.8144 -3.224,-4.674 -1.61099,-0.967 -4.459,-1.7728 -8.54099,-2.4175 l -17.407,-2.901 c -5.80201,-0.9671 -9.67,-3.7069 -11.604,-8.2197 -1.827,-4.6202 -2.74,-11.5504 -2.74,-20.7908 0,-11.6042 2.471,-19.7164 7.414,-24.33655 5.05,-4.72764 12.786,-7.09145 23.208,-7.09145 4.513,0 9.026,0.26862 13.539,0.80584 4.62,0.42979 8.327,1.02074 11.12,1.77287 v 12.40999 c -6.876,-1.1819 -13.86,-1.7728 -20.952,-1.7728 -4.405,0 -7.843,0.3223 -10.315,0.967 -2.471,0.6447 -4.351,1.6654 -5.641,3.0622 -1.289,1.3968 -2.14801,3.1697 -2.578,5.3186 -0.43,2.1489 -0.645,4.9962 -0.645,8.542 0,4.5127 0.215,7.7898 0.645,9.8313 0.43,1.934 1.235,3.3308 2.417,4.1904 1.29,0.7521 3.385,1.3431 6.286,1.7728 l 16.439,2.7399 c 4.298,0.7521 7.736,1.9878 10.315,3.7069 2.686,1.6117 4.781,4.3516 6.286,8.2196 1.289,3.6532 1.934,9.7239 1.934,18.21221 0,8.7031 -1.021,15.5259 -3.063,20.46849 -1.934,4.835 -4.996,8.273 -9.186,10.315 -4.191,1.934 -9.885,2.901 -17.08401,2.901 z"
     id="path883" />
  <path
     inkscape:connector-curvature="0"
     style="fill:#1b1b1b"
     d="m 272.48075,260.5917 h 27.39873 c 10.9595,0 18.7494,1.45053 23.3696,4.35157 4.7276,2.90105 7.7361,7.95098 9.0255,15.14988 1.2893,7.0915 1.934,19.0717 1.934,35.9408 0,16.869 -0.6447,28.903 -1.934,36.1019 -1.2894,7.0916 -4.2979,12.0876 -9.0255,14.9886 -4.6202,2.901 -12.4101,4.352 -23.3696,4.352 h -27.39873 z m 27.07643,97.66855 c 6.4468,0 10.8521,-0.6984 13.2159,-2.0952 2.4712,-1.5042 4.0829,-4.9425 4.8351,-10.3148 0.8595,-5.4798 1.2893,-15.4185 1.2893,-29.8163 0,-14.2904 -0.4298,-24.1754 -1.2893,-29.6552 -0.7522,-5.4797 -2.3639,-8.918 -4.8351,-10.3148 -2.3638,-1.5042 -6.7691,-2.2564 -13.2159,-2.2564 h -11.9265 v 84.4527 z m 127.178,13.2162 -6.769,-28.3661 h -31.267 l -6.608,28.3661 h -15.1502 l 27.2372,-110.88475 h 20.952 l 27.077,110.88475 z m -21.919,-94.4455 h -0.967 l -12.088,53.0247 h 25.142 z m 97.226,95.7345 c -4.298,0 -9.025,-0.215 -14.183,-0.645 -5.157,-0.429 -9.724,-0.967 -13.699,-1.611 v -12.7327 c 9.24,1.1819 17.03,1.7727 23.369,1.7727 4.083,0 7.307,-0.268 9.671,-0.8057 2.471,-0.6447 4.405,-1.6654 5.802,-3.0622 1.289,-1.2893 2.149,-3.1159 2.578,-5.4797 0.43,-2.3639 0.645,-5.4798 0.645,-9.3479 0,-5.2648 -0.268,-8.9717 -0.806,-11.1206 -0.43,-2.2564 -1.504,-3.8144 -3.223,-4.674 -1.612,-0.967 -4.459,-1.7728 -8.542,-2.4175 l -17.406,-2.901 c -5.802,-0.9671 -9.671,-3.7069 -11.605,-8.2197 -1.826,-4.6202 -2.739,-11.5504 -2.739,-20.7908 0,-11.6042 2.471,-19.7164 7.413,-24.33655 5.05,-4.72764 12.786,-7.09145 23.209,-7.09145 4.512,0 9.025,0.26861 13.538,0.80584 4.62,0.42979 8.327,1.02074 11.121,1.77287 v 12.40999 c -6.877,-1.1819 -13.861,-1.7728 -20.952,-1.7728 -4.406,0 -7.844,0.3223 -10.315,0.967 -2.471,0.6447 -4.352,1.6654 -5.641,3.0622 -1.289,1.3968 -2.149,3.1697 -2.579,5.3186 -0.43,2.1489 -0.645,4.9962 -0.645,8.542 0,4.5127 0.215,7.7898 0.645,9.8313 0.43,1.934 1.236,3.3308 2.418,4.1904 1.289,0.7521 3.384,1.3431 6.285,1.7728 l 16.44,2.7399 c 4.297,0.7521 7.736,1.9878 10.314,3.7069 2.687,1.6117 4.782,4.3516 6.286,8.2196 1.289,3.6532 1.934,9.7239 1.934,18.2122 0,8.7031 -1.021,15.5259 -3.062,20.4683 -1.934,4.835 -4.996,8.274 -9.187,10.315 -4.19,1.934 -9.885,2.901 -17.084,2.901 z"
     id="path873" />
</svg>
