<svg width="33" height="32" viewBox="0 0 33 32" fill="none" xmlns="http://www.w3.org/2000/svg">
<path d="M20.3904 1.96923H20.4373H20.3904ZM20.3904 1.96923L17.0154 13.6308L29.2967 13.6615L12.6092 29.4769L15.9842 16.6462L3.70295 16.6154L20.3904 1.96923ZM20.3904 0H20.1561C19.9061 0.0205128 19.6873 0.0564103 19.4998 0.107692C19.3123 0.158974 19.1014 0.235898 18.867 0.338462C18.6326 0.441026 18.4217 0.564103 18.2342 0.707693C18.2029 0.728205 18.1795 0.748718 18.1639 0.769231C18.1483 0.789744 18.1248 0.810257 18.0936 0.83077L1.26545 15.4154C0.546696 16.0718 0.468571 16.759 1.03107 17.4769C1.12482 17.6 1.24201 17.718 1.38263 17.8308C1.52326 17.9436 1.67951 18.0462 1.85138 18.1385C2.02326 18.2308 2.21076 18.3077 2.41388 18.3692C2.61701 18.4308 2.82795 18.4769 3.0467 18.5077C3.26545 18.5385 3.4842 18.5539 3.70295 18.5539L12.3748 18.5846L9.60919 29.1385C9.48419 29.5898 9.59357 30.0154 9.93732 30.4154C10.2811 30.8154 10.7654 31.1077 11.3904 31.2923C11.5779 31.3539 11.7733 31.3949 11.9764 31.4154C12.1795 31.4359 12.3904 31.4462 12.6092 31.4462C13.5154 31.4462 14.2811 31.1795 14.9061 30.6462L31.7342 14.8308C32.4529 14.1744 32.5311 13.4872 31.9686 12.7692C31.4061 12.0513 30.5154 11.6923 29.2967 11.6923H20.6248L23.3436 2.43077C23.3748 2.34872 23.3983 2.2718 23.4139 2.2C23.4295 2.12821 23.4373 2.05128 23.4373 1.96923C23.4373 1.78462 23.3983 1.61026 23.3201 1.44615C23.242 1.28205 23.1404 1.12821 23.0154 0.984616C22.8904 0.841026 22.742 0.707693 22.5701 0.584616C22.3983 0.461539 22.2029 0.358974 21.9842 0.276923C21.7654 0.194872 21.5311 0.128205 21.2811 0.0769231C21.0311 0.025641 20.7811 0 20.5311 0H20.3904Z" fill="#1B1B1B"/>
</svg>
