<svg width="55" height="29" viewBox="0 0 55 29" fill="none" xmlns="http://www.w3.org/2000/svg">
<path d="M46.7893 6.57882H55V3.94729H46.7893C46.3764 3.18526 45.6232 2.52687 44.6322 2.06159C43.6411 1.59631 42.4602 1.34671 41.25 1.34671C40.0398 1.34671 38.8589 1.59631 37.8678 2.06159C36.8768 2.52687 36.1236 3.18526 35.7107 3.94729H21.6071V0H5.89286V3.94729H0V6.57882H5.89286V10.5261H21.6071V6.57882H35.7107C36.004 7.13065 36.477 7.63183 37.0953 8.04603C37.7137 8.46022 38.4619 8.77704 39.2857 8.97351V18.6049C37.9346 18.8412 36.7018 19.3143 35.7144 19.9758C34.727 20.6372 34.0206 21.4629 33.6679 22.368H0V24.9995H33.6679C34.1202 26.1144 35.1077 27.0987 36.478 27.8004C37.8482 28.5021 39.5252 28.8823 41.25 28.8823C42.9748 28.8823 44.6518 28.5021 46.022 27.8004C47.3923 27.0987 48.3798 26.1144 48.8321 24.9995H55V22.368H48.8321C48.4794 21.4629 47.773 20.6372 46.7856 19.9758C45.7982 19.3143 44.5654 18.8412 43.2143 18.6049V8.97351C44.0381 8.77704 44.7863 8.46022 45.4047 8.04603C46.023 7.63183 46.496 7.13065 46.7893 6.57882ZM17.6786 7.89458H9.82143V2.63153H17.6786V7.89458ZM45.1786 23.6837C45.1786 24.2042 44.9482 24.713 44.5165 25.1457C44.0848 25.5785 43.4713 25.9158 42.7534 26.115C42.0355 26.3141 41.2456 26.3662 40.4836 26.2647C39.7215 26.1632 39.0215 25.9125 38.4721 25.5445C37.9227 25.1765 37.5485 24.7076 37.3969 24.1971C37.2453 23.6867 37.3231 23.1575 37.6205 22.6767C37.9178 22.1959 38.4214 21.7849 39.0674 21.4957C39.7135 21.2066 40.473 21.0522 41.25 21.0522C42.2919 21.0522 43.2912 21.3295 44.0279 21.823C44.7647 22.3165 45.1786 22.9858 45.1786 23.6837Z" fill="#1B1B1B"/>
</svg>
