<svg width="39" height="50" viewBox="0 0 39 50" fill="none" xmlns="http://www.w3.org/2000/svg">
<path d="M23.5 37C23.5 43.6246 18.6229 48 12.5 48C6.37709 48 1.5 43.6246 1.5 37C1.5 35.062 2.18316 32.7282 3.31867 30.2301C4.44369 27.755 5.95736 25.2374 7.49288 22.9648C9.02539 20.6967 10.5609 18.7002 11.7145 17.2698C12.0026 16.9125 12.2664 16.5911 12.5 16.3101C12.7336 16.5911 12.9974 16.9125 13.2855 17.2698C14.4391 18.7002 15.9746 20.6967 17.5071 22.9648C19.0426 25.2374 20.5563 27.755 21.6813 30.2301C22.8168 32.7282 23.5 35.062 23.5 37Z" stroke="#1B1B1B" stroke-width="3"/>
<path d="M39 15.5493C39 20.6197 35.1944 24 30.5 24C25.8056 24 22 20.6197 22 15.5493C22 9.46479 30.5 0 30.5 0C30.5 0 39 9.46479 39 15.5493Z" fill="#1B1B1B"/>
<path d="M32 31.1831C32 32.8732 30.6569 34 29 34C27.3431 34 26 32.8732 26 31.1831C26 29.1549 29 26 29 26C29 26 32 29.1549 32 31.1831Z" fill="#1B1B1B"/>
</svg>
