<svg width="45" height="30" viewBox="0 0 45 30" fill="none" xmlns="http://www.w3.org/2000/svg">
<path d="M35.9963 27.5693H2.99969V5.90995H22.8276L25.8273 3.94092H2.99969C2.20412 3.94092 1.44114 4.14837 0.878589 4.51763C0.316038 4.8869 0 5.38773 0 5.90995V27.5693C0 28.0915 0.316038 28.5923 0.878589 28.9616C1.44114 29.3309 2.20412 29.5383 2.99969 29.5383H35.9963C36.7918 29.5383 37.5548 29.3309 38.1174 28.9616C38.6799 28.5923 38.996 28.0915 38.996 27.5693V12.8016L35.9963 14.7706V27.5693Z" fill="#1B1B1B"/>
<path d="M44.2904 3.78358L39.2359 0.465789C39.0116 0.318143 38.7451 0.200999 38.4517 0.121071C38.1583 0.0411426 37.8438 0 37.5261 0C37.2084 0 36.8939 0.0411426 36.6005 0.121071C36.3071 0.200999 36.0406 0.318143 35.8163 0.465789L15.2534 14.0422L13.5886 18.7776C13.5177 19.0072 13.5251 19.2442 13.6104 19.4716C13.6957 19.6991 13.8568 19.9113 14.0819 20.093C14.3071 20.2746 14.5908 20.4213 14.9127 20.5224C15.2345 20.6236 15.5865 20.6766 15.9433 20.6777C16.1278 20.6911 16.3139 20.6911 16.4983 20.6777L23.7725 19.6243L44.2904 6.02826C44.5153 5.88102 44.6938 5.70609 44.8156 5.5135C44.9373 5.32091 45 5.11444 45 4.90592C45 4.6974 44.9373 4.49093 44.8156 4.29834C44.6938 4.10575 44.5153 3.93082 44.2904 3.78358ZM22.2127 17.803L16.7233 18.6004L17.9981 15.0267L33.4765 4.79763L37.7061 7.57394L22.2127 17.803ZM39.4009 6.46145L35.1713 3.68513L37.4961 2.12961L41.7557 4.92561L39.4009 6.46145Z" fill="#1B1B1B"/>
</svg>
