<svg width="15" height="16" viewBox="0 0 15 16" fill="none" xmlns="http://www.w3.org/2000/svg">
<path d="M7.52983 0.737305C5.57376 0.737305 5.32998 0.74675 4.56447 0.779134C3.79581 0.816915 3.27587 0.936105 2.8171 1.11421C2.33695 1.29548 1.90211 1.57929 1.54289 1.94585C1.17531 2.30422 0.891348 2.73931 0.711261 3.22005C0.53315 3.67882 0.41396 4.19876 0.37618 4.96742C0.341547 5.73339 0.334351 5.97671 0.334351 7.93278C0.334351 9.88884 0.343796 10.1326 0.37618 10.8981C0.41396 11.6645 0.53315 12.1867 0.711261 12.6455C0.892529 13.1257 1.17633 13.5605 1.54289 13.9197C1.90127 14.2873 2.33635 14.5713 2.8171 14.7513C3.27587 14.9272 3.79806 15.0486 4.56447 15.0864C5.33043 15.1211 5.57376 15.1283 7.52983 15.1283C9.48589 15.1283 9.72967 15.1188 10.4952 15.0864C11.2616 15.0486 11.7838 14.9268 12.2425 14.7513C12.7227 14.5701 13.1575 14.2863 13.5168 13.9197C13.8848 13.5617 14.1688 13.1265 14.3484 12.6455C14.5243 12.1867 14.6457 11.6645 14.6835 10.8981C14.7181 10.1322 14.7253 9.88884 14.7253 7.93278C14.7253 5.97671 14.7159 5.73294 14.6835 4.96742C14.6457 4.20101 14.5238 3.67612 14.3484 3.22005C14.1671 2.7399 13.8833 2.30506 13.5168 1.94585C13.1588 1.57779 12.7236 1.29376 12.2425 1.11421C11.7838 0.936105 11.2616 0.816915 10.4952 0.779134C9.72922 0.744501 9.48589 0.737305 7.52983 0.737305ZM7.52983 2.03265C9.45081 2.03265 9.68019 2.0421 10.4394 2.07448C11.1397 2.10731 11.5211 2.22426 11.7743 2.32321C12.0874 2.43876 12.3707 2.62269 12.6037 2.86158C12.8422 3.09359 13.0254 3.37628 13.1398 3.68872C13.2388 3.94194 13.3557 4.32335 13.3886 5.02364C13.421 5.78286 13.4304 6.0127 13.4304 7.93323C13.4304 9.85376 13.421 10.0836 13.3859 10.8428C13.3481 11.5431 13.2312 11.9245 13.1327 12.1777C12.9964 12.5155 12.8443 12.7517 12.5934 13.0071C12.3596 13.2445 12.0764 13.4276 11.764 13.5433C11.5139 13.6422 11.1271 13.7591 10.4241 13.792C9.66085 13.8244 9.43596 13.8338 7.51004 13.8338C5.58411 13.8338 5.35967 13.8244 4.5955 13.7893C3.89521 13.7515 3.50885 13.6346 3.25563 13.5361C2.9138 13.3998 2.67947 13.2478 2.4285 12.9968C2.17527 12.7436 2.01425 12.5025 1.89012 12.1674C1.78937 11.9173 1.67423 11.5305 1.63689 10.8275C1.61126 10.0732 1.59911 9.83937 1.59911 7.92243C1.59911 6.0064 1.61126 5.77207 1.63689 5.00835C1.67423 4.30536 1.78937 3.91945 1.89012 3.66848C2.01425 3.3262 2.17572 3.09232 2.4285 2.8391C2.67902 2.58857 2.9138 2.42665 3.25563 2.29982C3.50885 2.20132 3.88576 2.08438 4.58876 2.04929C5.35202 2.02186 5.57691 2.01196 7.50014 2.01196L7.52983 2.03265ZM7.52983 4.23969C7.04467 4.23951 6.56424 4.33494 6.11599 4.52052C5.66773 4.70609 5.26044 4.97818 4.91739 5.32124C4.57433 5.66429 4.30224 6.07159 4.11666 6.51984C3.93109 6.9681 3.83566 7.44853 3.83584 7.93368C3.83566 8.41883 3.93109 8.89926 4.11666 9.34752C4.30224 9.79577 4.57433 10.2031 4.91739 10.5461C5.26044 10.8892 5.66773 11.1613 6.11599 11.3468C6.56424 11.5324 7.04467 11.6278 7.52983 11.6277C8.01498 11.6278 8.49541 11.5324 8.94366 11.3468C9.39192 11.1613 9.79921 10.8892 10.1423 10.5461C10.4853 10.2031 10.7574 9.79577 10.943 9.34752C11.1286 8.89926 11.224 8.41883 11.2238 7.93368C11.224 7.44853 11.1286 6.9681 10.943 6.51984C10.7574 6.07159 10.4853 5.66429 10.1423 5.32124C9.79921 4.97818 9.39192 4.70609 8.94366 4.52052C8.49541 4.33494 8.01498 4.23951 7.52983 4.23969ZM7.52983 10.3323C6.20389 10.3323 5.13118 9.25961 5.13118 7.93368C5.13118 6.60775 6.20389 5.53504 7.52983 5.53504C8.85576 5.53504 9.92847 6.60775 9.92847 7.93368C9.92847 9.25961 8.85576 10.3323 7.52983 10.3323ZM12.2363 4.09216C12.236 4.3214 12.1448 4.54116 11.9826 4.70317C11.8204 4.86518 11.6006 4.95618 11.3713 4.95618C11.258 4.95618 11.1458 4.93385 11.041 4.89048C10.9363 4.8471 10.8412 4.78353 10.761 4.70338C10.6809 4.62323 10.6173 4.52808 10.5739 4.42336C10.5305 4.31865 10.5082 4.20641 10.5082 4.09306C10.5082 3.97972 10.5305 3.86748 10.5739 3.76276C10.6173 3.65805 10.6809 3.5629 10.761 3.48275C10.8412 3.4026 10.9363 3.33902 11.041 3.29565C11.1458 3.25227 11.258 3.22995 11.3713 3.22995C11.8467 3.22995 12.2363 3.61675 12.2363 4.09216Z" fill="#1B1B1B"/>
</svg>
